<svg xmlns="http://www.w3.org/2000/svg" width="105" height="18" fill="#707e9b" xmlns:v="https://vecta.io/nano"><path d="M0 8.604l.28-1.271c.327-1.222.887-2.297 1.822-3.127.794-.733 1.635-1.319 2.522-1.955.187-.147.467-.147.701-.195-.093.244-.093.489-.234.684-.28.44-.654.831-.981 1.271-.607.782-1.168 1.661-1.495 2.639-.514 1.515-.28 2.981.374 4.398.187.44.42.831.654 1.271.42-.538.42-1.075.467-1.564l.14-5.717c0-.293.047-.489.28-.684L8.921.688c.234-.195.42-.244.701-.098l2.149 1.075c.467.244.934.195 1.401-.098.28-.195.561-.342.888-.489.093-.049.28-.049.28.049.047.098.047.244.047.342-.047.147-.14.244-.187.391-.187.244-.42.44-.56.635-1.028 1.222-2.289 1.564-3.783 1.271-.42-.098-.841-.098-1.308-.147l.327 2.834c.234 1.075 1.682 1.661 2.616 1.124l.561-.293c.28-.098.467.049.374.342-.14.391-.28.782-.561 1.075-.701.782-1.588 1.319-2.616 1.466-.327.049-.514.196-.514.489l-.093 1.808v2.541c.794-.147 1.541-.244 2.242-.489.888-.293 1.728-.733 2.569-1.173.374-.196.747-.44 1.168-.586.327-.147.514 0 .42.391-.093.293-.233.586-.374.782-1.448 1.808-3.176 3.03-5.418 3.47-3.083.782-6.726-.928-8.314-3.665-.516-.83-.749-1.808-.936-2.736V8.604zm4.297 4.594l1.868 1.222c.234.147.561.196.841.196.56.049.747-.147.747-.733V11c0-.342-.093-.733-.187-1.075-.047-.147-.187-.293-.327-.293-.093 0-.234.147-.327.244l-.654.977-1.962 2.346zm3.316-9.773c-.514.635-.56 3.225-.047 3.812.327-1.319.28-2.59.047-3.812zm55.396 14.366c-1.215-1.124-1.728-2.541-1.635-4.251l-.047-3.812c0-.391-.047-.782-.14-1.124-.047-.342-.093-.733-.56-.782-.42-.049-.981.293-1.121.733-.047.147-.093.293-.093.489-.187 1.906-.187 3.86.093 5.766a1.76 1.76 0 0 0 .28.684c.187.244.187.537-.047.684l-1.775 1.466c-.093.049-.28.049-.374-.049l-1.635-1.368c-.28-.244-.28-.538-.093-.88s.28-.733.327-1.124c.233-1.906.233-3.812-.093-5.717-.047-.342-.047-.782-.56-.782-.56 0-.887.195-.981.782-.327 1.417-.374 2.883-.28 4.349l.187 1.759c.047.293.234.537.28.782.047.195.093.489 0 .586l-1.822 1.613c-.047.049-.28.049-.327-.049l-1.635-1.368c-.28-.244-.28-.537-.093-.88.187-.391.327-.831.327-1.27V8.604c0-.489-.234-.782-.747-.928-.654-.195-.701-.391-.234-.831.42-.44.887-.831 1.355-1.173.701-.489 1.308-.391 1.868.244.374.391.701.831 1.074 1.319.233-.244.514-.44.747-.635.327-.293.654-.586 1.028-.831.794-.538 1.261-.489 1.915.244a17.83 17.83 0 0 1 1.261 1.661c.093-.147.14-.342.234-.44l1.401-1.466c.467-.44.841-.489 1.355-.098.327.195.607.489.934.684.514.342.654.342 1.121-.049.14-.098.327-.098.514-.195 0 .195.047.44-.047.586-.654 1.026-.701 2.199-.654 3.421l.187 4.3c.047.635.093.635.701.684.14 0 .327.049.374.147.047.147 0 .342-.093.44l-1.168 1.124-1.168 1.026c0-.049-.093-.049-.14-.049zm-29.005-2.736c2.289-.098 4.11-1.466 6.119-2.248.234.391.047.586-.093.831a8.77 8.77 0 0 1-2.662 2.639c-2.662 1.661-5.418 1.955-8.221.489-3.083-1.613-4.764-5.522-3.83-8.943.654-2.394 2.195-4.203 4.344-5.375.187-.098.42-.195.607-.195.14 0 .234.049.374.098-.047.147-.047.293-.14.391-.093.147-.234.244-.374.342-1.541 1.222-2.242 2.883-2.476 4.838-.187 1.271 0 2.492.654 3.616.047.049.047.147.093.195a2.58 2.58 0 0 0 .42.342c.093-.196.234-.342.234-.537l.14-1.808v-4.4a.8.8 0 0 1 .327-.684L33.91.932c.28-.244.467-.244.794-.098l2.055 1.026a1.4 1.4 0 0 0 1.448-.098l.981-.538c.327-.147.561.049.467.391-.14.391-.327.831-.607 1.124-1.028.977-2.289 1.368-3.69 1.222l-1.028-.147c-.187-.049-.327.049-.327.293v.342 10.164c-.047 0-.047.195 0 .44zm-4.718-1.906l2.289 1.417c.607.342.934.147 1.028-.538.093-.586.187-1.173.187-1.759l-.093-7.819c0-.342-.093-.684-.14-.977h-.14l-.187 1.271-.093 4.74a1.23 1.23 0 0 1-.28.782l-2.569 2.883zM105 11.634v3.323c0 .293-.047.489-.327.586l-3.55 1.857c-.373.195-.654.147-.981 0l-2.428-1.075c-.28-.098-.607-.098-.888-.147s-.374-.195-.28-.489c.42-1.368.374-2.785.467-4.203l.093-3.812a.69.69 0 0 1 .42-.684l2.242-1.124c.14-.098.327-.147.467-.293.373-.489.84-.44 1.308-.244l2.895 1.222c.374.147.468.538.468.928l.093 3.127v1.026zm-4.764-3.86l-.047.049-.14 5.326c0 .929.42 1.515 1.214 1.808.281.098.467.049.561-.244s.14-.586.14-.88l-.093-3.909c-.047-1.319-.468-1.857-1.635-2.15zm-51.66 3.958v3.567c0 .293-.047.489-.374.538-1.074.195-2.055.733-2.943 1.417-.467.391-.887.391-1.401.098l-2.335-1.075c-.047 0-.093-.049-.14-.049-.841-.147-.934-.244-.887-1.124l.187-5.962c.047-.538.187-1.124.327-1.661.093-.391.374-.586.794-.684s.841-.342 1.261-.586l1.401-.977c.233-.195.42-.147.654-.049l1.962.977a2.24 2.24 0 0 0 .607.195c.654.147.747.244.794.977l.093 4.398zm-2.896-.098h-.093V9.386c-.047-.977-.234-1.222-1.168-1.466-.607-.147-.701-.098-.701.538v4.691c0 1.026.234 1.319 1.308 1.71.374.147.467 0 .514-.342l.14-2.883zm26.484 3.616l1.355-.586c.234-.098.607-.196.701-.098.234.293-.093.538-.28.684l-2.99 2.15c-.14.098-.467.098-.654.049l-2.616-1.075c-.187-.098-.42-.147-.561-.293-.14-.098-.234-.293-.234-.489l.234-6.744c0-.391.047-.831.093-1.222.047-.342.187-.586.514-.733l3.643-1.759c.234-.147.42-.147.607.098l2.195 2.541c.747.928.701 1.271-.234 2.004l-2.756 2.101c-.374.293-.701.684-.981 1.124-.327.489-.28.977.187 1.319.514.391 1.168.635 1.775.928zm.327-5.327l-2.382-2.688v4.154l2.382-1.466zm-56.517-.146V4.89c0-.489-.093-.977-.14-1.466-.047-.195-.093-.391-.234-.538-.233-.342-.233-.635.047-.88A13.55 13.55 0 0 1 17.235.688a.41.41 0 0 1 .467 0l1.541 1.271c.28.244.233.538.14.977-.234.733-.374 1.564-.374 2.346l.047 5.62.047 3.518c0 .391.093.586.514.586.374 0 .794.147 1.168.244.28.098.374.293.14.489l-2.149 1.955c-.234.195-.42.098-.607-.049l-1.868-1.271c-.14-.098-.187-.342-.234-.538l-.093-3.372V9.777zm63.15-2.981l1.588-1.173c.187-.147.42-.244.607-.244.14 0 .374.098.42.244.093.391.42.489.701.635.28.098.514.147.794.293s.374.342.187.684c-.514.88-1.728 1.466-2.662 1.271-.374-.098-.701-.244-.934-.586s-.42-.342-.56.098-.234.928-.234 1.368l.093 4.594c.047.831.234.977.981 1.124l.747.195c.234.098.28.293.094.44l-2.382 1.857c-.093.098-.374.049-.514-.049l-1.681-1.124c-.327-.244-.654-.44-.934-.733-.187-.195-.28-.44.093-.586.093-.049.233-.244.233-.342.094-.586.14-1.173.187-1.759V8.995c0-.195 0-.342-.047-.538-.093-.684-.093-.684-.794-.782-.187 0-.327-.147-.467-.195.093-.147.093-.391.234-.489l1.401-1.271c.654-.489 1.168-.44 1.775.098.374.293.701.635 1.074.977zm7.52 1.124l-.14 1.271.093 4.349c.047.977 1.261 1.906 2.149 1.71.14-.049.233-.147.374-.195.14-.098.28-.195.42-.244s.327 0 .42.098c.047.098.047.293-.047.44a2.27 2.27 0 0 1-.467.489l-2.149 1.71c-.234.195-.514.244-.841.098l-2.616-1.173c-.747-.342-.701-.44-.607-1.271.14-1.075.234-2.15.234-3.274V8.067c0-.293.093-.44.327-.586l3.083-2.15c.14-.098.374-.147.467-.098.701.342 1.355.733 2.008 1.173s.701.831.28 1.466l-.561.831c-.374.489-.561.489-1.074.195-.374-.391-.841-.635-1.355-.977zm6.072-2.541c.14.049.374.049.514.195.514.391.981.831 1.448 1.271.187.195.187.44.047.733-.233.489-.327 1.026-.374 1.564-.093 1.808-.093 3.567.234 5.375.047.293.093.586.514.635.047 0 .234.293.187.391a2.42 2.42 0 0 1-.467.733L93.65 17.4c-.467.391-.654.342-1.074-.049-.888-.733-1.168-1.759-1.214-2.883l-.094-4.349c-.047-.928-.047-1.906-.514-2.785-.093-.147-.047-.44.047-.586.42-.586.981-1.075 1.681-1.319.047-.049.14-.049.234-.049zm-2.102-2.297c.514-.538.934-1.124 1.448-1.564s.934-.391 1.355.098c.374.44.841.684 1.448.733.14 0 .374.147.42.244.047.147-.047.391-.14.489l-2.149 1.417c-.14.098-.514 0-.701-.147l-1.681-1.271z"/></svg>